{
  "accessors": [
    {
      "bufferView": 2,
      "componentType": 5126,
      "count": 65532,
      "max": [
        331.8121032714844,
        -0.2305334359407425,
        240.88075256347656
      ],
      "min": [
        182.74966430664063,
        -3.527716875076294,
        8.48505687713623
      ],
      "type": "VEC3"
    },
    {
      "bufferView": 2,
      "byteOffset": 786384,
      "componentType": 5126,
      "count": 65532,
      "max": [
        0.9999949932098389,
        0.9999986290931702,
        0.9999995827674866
      ],
      "min": [
        -1.0,
        -0.9999998211860657,
        -0.9999995827674866
      ],
      "type": "VEC3"
    },
    {
      "bufferView": 1,
      "componentType": 5126,
      "count": 65532,
      "max": [
        0.875,
        1.0
      ],
      "min": [
        0.0,
        -7.450580596923828e-09
      ],
      "type": "VEC2"
    },
    {
      "bufferView": 0,
      "componentType": 5125,
      "count": 327234,
      "type": "SCALAR"
    },
    {
      "bufferView": 2,
      "byteOffset": 1572768,
      "componentType": 5126,
      "count": 65534,
      "max": [
        326.4796447753906,
        -0.23053383827209473,
        202.0503387451172
      ],
      "min": [
        183.5444793701172,
        -3.3906614780426025,
        18.810686111450195
      ],
      "type": "VEC3"
    },
    {
      "bufferView": 2,
      "byteOffset": 2359176,
      "componentType": 5126,
      "count": 65534,
      "max": [
        1.0,
        0.9999960064888,
        1.0
      ],
      "min": [
        -1.0,
        -0.9999919533729553,
        -0.9999999403953552
      ],
      "type": "VEC3"
    },
    {
      "bufferView": 1,
      "byteOffset": 524256,
      "componentType": 5126,
      "count": 65534,
      "max": [
        0.875,
        0.75
      ],
      "min": [
        0.125,
        -7.450580596923828e-09
      ],
      "type": "VEC2"
    },
    {
      "bufferView": 0,
      "byteOffset": 1308936,
      "componentType": 5125,
      "count": 430266,
      "type": "SCALAR"
    },
    {
      "bufferView": 2,
      "byteOffset": 3145584,
      "componentType": 5126,
      "count": 65533,
      "max": [
        277.8090515136719,
        -0.2307521402835846,
        134.064697265625
      ],
      "min": [
        182.74697875976563,
        -3.527716875076294,
        8.467453956604004
      ],
      "type": "VEC3"
    },
    {
      "bufferView": 2,
      "byteOffset": 3931980,
      "componentType": 5126,
      "count": 65533,
      "max": [
        1.0,
        0.9999974370002747,
        1.0
      ],
      "min": [
        -1.0,
        -0.9999971985816956,
        -1.0
      ],
      "type": "VEC3"
    },
    {
      "bufferView": 1,
      "byteOffset": 1048528,
      "componentType": 5126,
      "count": 65533,
      "max": [
        0.875,
        0.75
      ],
      "min": [
        0.125,
        -7.450580596923828e-09
      ],
      "type": "VEC2"
    },
    {
      "bufferView": 0,
      "byteOffset": 3030000,
      "componentType": 5125,
      "count": 428475,
      "type": "SCALAR"
    },
    {
      "bufferView": 2,
      "byteOffset": 4718376,
      "componentType": 5126,
      "count": 65532,
      "max": [
        308.39385986328125,
        -0.23056772351264954,
        240.88807678222656
      ],
      "min": [
        186.07081604003906,
        -3.390599012374878,
        46.214515686035156
      ],
      "type": "VEC3"
    },
    {
      "bufferView": 2,
      "byteOffset": 5504760,
      "componentType": 5126,
      "count": 65532,
      "max": [
        0.9999990463256836,
        0.9999973773956299,
        1.0
      ],
      "min": [
        -0.9999983310699463,
        -0.9999919533729553,
        -1.0
      ],
      "type": "VEC3"
    },
    {
      "bufferView": 1,
      "byteOffset": 1572792,
      "componentType": 5126,
      "count": 65532,
      "max": [
        0.875,
        0.75
      ],
      "min": [
        0.125,
        -7.450580596923828e-09
      ],
      "type": "VEC2"
    },
    {
      "bufferView": 0,
      "byteOffset": 4743900,
      "componentType": 5125,
      "count": 433170,
      "type": "SCALAR"
    },
    {
      "bufferView": 2,
      "byteOffset": 6291144,
      "componentType": 5126,
      "count": 58179,
      "max": [
        331.8199768066406,
        -0.23053325712680817,
        221.67626953125
      ],
      "min": [
        301.3099060058594,
        -3.390543222427368,
        81.77186584472656
      ],
      "type": "VEC3"
    },
    {
      "bufferView": 2,
      "byteOffset": 6989292,
      "componentType": 5126,
      "count": 58179,
      "max": [
        0.9999943971633911,
        0.9999969005584717,
        0.9999995827674866
      ],
      "min": [
        -1.0,
        -0.9999917149543762,
        -0.9999999403953552
      ],
      "type": "VEC3"
    },
    {
      "bufferView": 1,
      "byteOffset": 2097048,
      "componentType": 5126,
      "count": 58179,
      "max": [
        0.875,
        0.75
      ],
      "min": [
        0.125,
        -7.450580596923828e-09
      ],
      "type": "VEC2"
    },
    {
      "bufferView": 0,
      "byteOffset": 6476580,
      "componentType": 5125,
      "count": 381387,
      "type": "SCALAR"
    },
    {
      "bufferView": 2,
      "byteOffset": 7687440,
      "componentType": 5126,
      "count": 50637,
      "max": [
        331.7243347167969,
        0.09759216755628586,
        240.79014587402344
      ],
      "min": [
        182.8454132080078,
        -3.468852996826172,
        8.560768127441406
      ],
      "type": "VEC3"
    },
    {
      "bufferView": 2,
      "byteOffset": 8295084,
      "componentType": 5126,
      "count": 50637,
      "max": [
        0.9998646378517151,
        0.9938137531280518,
        0.9999998211860657
      ],
      "min": [
        -0.9995855689048767,
        -0.9739546179771423,
        -0.9999998211860657
      ],
      "type": "VEC3"
    },
    {
      "bufferView": 1,
      "byteOffset": 2562480,
      "componentType": 5126,
      "count": 50637,
      "max": [
        0.65625,
        0.9923526048660278
      ],
      "min": [
        0.34375,
        0.007647402584552765
      ],
      "type": "VEC2"
    },
    {
      "bufferView": 0,
      "byteOffset": 8002128,
      "componentType": 5125,
      "count": 59940,
      "type": "SCALAR"
    },
    {
      "bufferView": 2,
      "byteOffset": 8902728,
      "componentType": 5126,
      "count": 48,
      "max": [
        0.48465874791145325,
        0.3814573585987091,
        0.7733811140060425
      ],
      "min": [
        -0.5706101655960083,
        -0.5005367994308472,
        -0.7389925122261047
      ],
      "type": "VEC3"
    },
    {
      "bufferView": 2,
      "byteOffset": 8903304,
      "componentType": 5126,
      "count": 48,
      "max": [
        0.999950647354126,
        1.0,
        0.9988308548927307
      ],
      "min": [
        -0.9999437928199768,
        -1.0,
        -0.998775839805603
      ],
      "type": "VEC3"
    },
    {
      "bufferView": 1,
      "byteOffset": 2967576,
      "componentType": 5126,
      "count": 48,
      "max": [
        0.875,
        1.0
      ],
      "min": [
        0.125,
        0.0
      ],
      "type": "VEC2"
    },
    {
      "bufferView": 0,
      "byteOffset": 8241888,
      "componentType": 5125,
      "count": 84,
      "type": "SCALAR"
    }
  ],
  "asset": {
    "extras": {
      "author": "EdgyCG (https://sketchfab.com/danielp)",
      "license": "CC-BY-4.0 (http://creativecommons.org/licenses/by/4.0/)",
      "source": "https://sketchfab.com/3d-models/necklace-a247e7aff45f4964ad88b632b08a6e16",
      "title": "Necklace"
    },
    "generator": "Sketchfab-14.86.0",
    "version": "2.0"
  },
  "bufferViews": [
    {
      "buffer": 0,
      "byteLength": 8242224,
      "name": "floatBufferViews",
      "target": 34963
    },
    {
      "buffer": 0,
      "byteLength": 2967960,
      "byteOffset": 8242224,
      "byteStride": 8,
      "name": "floatBufferViews",
      "target": 34962
    },
    {
      "buffer": 0,
      "byteLength": 8903880,
      "byteOffset": 11210184,
      "byteStride": 12,
      "name": "floatBufferViews",
      "target": 34962
    }
  ],
  "buffers": [
    {
      "byteLength": 20114064,
      "uri": "scene.bin"
    }
  ],
  "extensionsUsed": [
    "KHR_materials_clearcoat",
    "KHR_materials_transmission",
    "KHR_materials_specular"
  ],
  "materials": [
    {
      "doubleSided": true,
      "name": "lambert1",
      "pbrMetallicRoughness": {
        "baseColorFactor": [
          0.775209617965722,
          0.775209617965722,
          0.775209617965722,
          1.0
        ],
        "roughnessFactor": 0.43340234329873717
      }
    },
    {
      "alphaMode": "BLEND",
      "doubleSided": true,
      "extensions": {
        "KHR_materials_clearcoat": {
          "clearcoatFactor": 1.0,
          "clearcoatRoughnessFactor": 0.2692376678887815
        },
        "KHR_materials_specular": {
          "specularColorFactor": [
            1.0,
            1.0,
            1.0
          ],
          "specularFactor": 1.0
        },
        "KHR_materials_transmission": {
          "transmissionFactor": 0.8341252758878572
        }
      },
      "name": "Diamodo",
      "pbrMetallicRoughness": {
        "baseColorFactor": [
          0.35615658527012056,
          0.5834393774668792,
          0.7494345424331751,
          0.25
        ],
        "metallicFactor": 0.6036471918720245,
        "roughnessFactor": 0.0
      }
    }
  ],
  "meshes": [
    {
      "name": "MASH1_ReproMesh_lambert1_0",
      "primitives": [
        {
          "attributes": {
            "NORMAL": 1,
            "POSITION": 0,
            "TEXCOORD_0": 2
          },
          "indices": 3,
          "material": 0,
          "mode": 4
        }
      ]
    },
    {
      "name": "MASH1_ReproMesh_lambert1_0",
      "primitives": [
        {
          "attributes": {
            "NORMAL": 5,
            "POSITION": 4,
            "TEXCOORD_0": 6
          },
          "indices": 7,
          "material": 0,
          "mode": 4
        }
      ]
    },
    {
      "name": "MASH1_ReproMesh_lambert1_0",
      "primitives": [
        {
          "attributes": {
            "NORMAL": 9,
            "POSITION": 8,
            "TEXCOORD_0": 10
          },
          "indices": 11,
          "material": 0,
          "mode": 4
        }
      ]
    },
    {
      "name": "MASH1_ReproMesh_lambert1_0",
      "primitives": [
        {
          "attributes": {
            "NORMAL": 13,
            "POSITION": 12,
            "TEXCOORD_0": 14
          },
          "indices": 15,
          "material": 0,
          "mode": 4
        }
      ]
    },
    {
      "name": "MASH1_ReproMesh_lambert1_0",
      "primitives": [
        {
          "attributes": {
            "NORMAL": 17,
            "POSITION": 16,
            "TEXCOORD_0": 18
          },
          "indices": 19,
          "material": 0,
          "mode": 4
        }
      ]
    },
    {
      "name": "MASH1_ReproMesh_Diamodo_0",
      "primitives": [
        {
          "attributes": {
            "NORMAL": 21,
            "POSITION": 20,
            "TEXCOORD_0": 22
          },
          "indices": 23,
          "material": 1,
          "mode": 4
        }
      ]
    },
    {
      "name": "pCube1_lambert1_0",
      "primitives": [
        {
          "attributes": {
            "NORMAL": 25,
            "POSITION": 24,
            "TEXCOORD_0": 26
          },
          "indices": 27,
          "material": 0,
          "mode": 4
        }
      ]
    }
  ],
  "nodes": [
    {
      "children": [
        1
      ],
      "matrix": [
        1.0,
        0.0,
        0.0,
        0.0,
        0.0,
        2.220446049250313e-16,
        -1.0,
        0.0,
        0.0,
        1.0,
        2.220446049250313e-16,
        0.0,
        0.0,
        0.0,
        0.0,
        1.0
      ],
      "name": "Sketchfab_model"
    },
    {
      "children": [
        2
      ],
      "matrix": [
        1.0,
        0.0,
        0.0,
        0.0,
        0.0,
        0.0,
        1.0,
        0.0,
        0.0,
        -1.0,
        0.0,
        0.0,
        0.0,
        0.0,
        0.0,
        1.0
      ],
      "name": "ae6fe3cd845c4ac3a701b460b7a87cbe.fbx"
    },
    {
      "children": [
        3,
        10
      ],
      "name": "RootNode"
    },
    {
      "children": [
        4,
        5,
        6,
        7,
        8,
        9
      ],
      "name": "MASH1_ReproMesh"
    },
    {
      "mesh": 0,
      "name": "MASH1_ReproMesh_lambert1_0"
    },
    {
      "mesh": 1,
      "name": "MASH1_ReproMesh_lambert1_0"
    },
    {
      "mesh": 2,
      "name": "MASH1_ReproMesh_lambert1_0"
    },
    {
      "mesh": 3,
      "name": "MASH1_ReproMesh_lambert1_0"
    },
    {
      "mesh": 4,
      "name": "MASH1_ReproMesh_lambert1_0"
    },
    {
      "mesh": 5,
      "name": "MASH1_ReproMesh_Diamodo_0"
    },
    {
      "children": [
        11
      ],
      "matrix": [
        9.773047845645985,
        0.0,
        4.398364583639272,
        0.0,
        0.0,
        3.818312644958496,
        0.0,
        0.0,
        -1.7749401712229922,
        0.0,
        3.9438693374910194,
        0.0,
        272.25970458984375,
        -1.7070393562316895,
        16.503742218017578,
        1.0
      ],
      "name": "pCube1"
    },
    {
      "mesh": 6,
      "name": "pCube1_lambert1_0"
    }
  ],
  "scene": 0,
  "scenes": [
    {
      "name": "Sketchfab_Scene",
      "nodes": [
        0
      ]
    }
  ]
}
